<svg xmlns="http://www.w3.org/2000/svg" viewBox="0 0 32 32">
  <!-- Fondo degradado púrpura -->
  <defs>
    <linearGradient id="bg" x1="0%" y1="0%" x2="100%" y2="100%">
      <stop offset="0%" style="stop-color:#8B5CF6"/>
      <stop offset="100%" style="stop-color:#EC4899"/>
    </linearGradient>
  </defs>
  
  <!-- Fondo redondeado -->
  <rect width="32" height="32" rx="6" fill="url(#bg)"/>
  
  <!-- Documento CV estilo pixel -->
  <!-- Hoja base -->
  <rect x="8" y="4" width="16" height="22" fill="white" rx="1"/>
  
  <!-- Esquina doblada -->
  <path d="M20 4 L24 8 L20 8 Z" fill="#E5E7EB"/>
  <path d="M20 4 L24 8 L20 8 L20 4" fill="none" stroke="#9CA3AF" stroke-width="0.5"/>
  
  <!-- Líneas de texto (pixel style) -->
  <rect x="10" y="10" width="8" height="2" fill="#8B5CF6"/>
  <rect x="10" y="14" width="12" height="1" fill="#CBD5E1"/>
  <rect x="10" y="16" width="10" height="1" fill="#CBD5E1"/>
  <rect x="10" y="18" width="12" height="1" fill="#CBD5E1"/>
  <rect x="10" y="20" width="8" height="1" fill="#CBD5E1"/>
  
  <!-- Foto placeholder -->
  <rect x="18" y="10" width="4" height="4" fill="#C4B5FD" rx="0.5"/>
  
  <!-- Checkmark de verificado -->
  <circle cx="24" cy="22" r="4" fill="#10B981"/>
  <path d="M22 22 L23.5 23.5 L26 20.5" stroke="white" stroke-width="1.5" fill="none" stroke-linecap="round" stroke-linejoin="round"/>
</svg>
